Coordinates
version=1
nRows=29
nColumns=24
inDegrees=yes

Units are S.I. units (second, meters, Newtons, ...)
Angles are in degrees.

endheader
time	pelvis_tilt	pelvis_list	pelvis_rotation	pelvis_tx	pelvis_ty	pelvis_tz	hip_flexion_r	hip_adduction_r	hip_rotation_r	knee_angle_r	ankle_angle_r	subtalar_angle_r	mtp_angle_r	hip_flexion_l	hip_adduction_l	hip_rotation_l	knee_angle_l	ankle_angle_l	subtalar_angle_l	mtp_angle_l	lumbar_extension	lumbar_bending	lumbar_rotation
      1.11766667	     -0.97025192	     -9.45465993	     -5.30472172	     -0.17031609	      0.99352053	      0.31097087	    -13.99686537	     10.03430791	     -4.73600335	     -5.54152367	      5.55707505	     -3.94700461	      1.91337537	     23.88540114	    -11.60128126	    -10.98761868	      3.26168532	      2.58259791	     -5.51245888	     -8.48741523	    -10.56961232	     10.82789574	      8.61533892
      1.12183333	     -0.84115915	     -9.35358487	     -5.55235729	     -0.16447173	      0.99322591	      0.31119133	    -14.30123707	      9.76442100	     -4.56719442	     -5.93860063	      5.67281573	     -3.67990805	      2.02876838	     23.65957804	    -11.58320583	    -11.03849478	      3.05088049	      2.48870353	     -5.61790803	     -8.35885073	    -10.71478242	     10.58667313	      8.91931172
      1.12600000	     -0.72423198	     -9.26414776	     -5.79358625	     -0.15863470	      0.99294182	      0.31145627	    -14.57706870	      9.51416017	     -4.37627872	     -6.36161425	      5.76243812	     -3.51932376	      2.15561950	     23.47699026	    -11.58350393	    -11.07745118	      2.71099747	      2.44870252	     -5.75935192	     -8.22027322	    -10.83651161	     10.34790271	      9.13732734
      1.13016667	     -0.58817436	     -9.15532753	     -6.03925588	     -0.15277013	      0.99272975	      0.31172048	    -14.85390235	      9.23358272	     -4.19724114	     -6.81337275	      5.82998426	     -3.34336067	      2.29060040	     23.27015461	    -11.56411104	    -11.12814758	      2.31489862	      2.36924044	     -5.95128900	     -8.07995976	    -10.97553053	     10.08396922	      9.36952319
      1.13433333	     -0.45806672	     -9.03499752	     -6.29596449	     -0.14688668	      0.99256443	      0.31201112	    -15.10388428	      8.93742881	     -4.01198537	     -7.29626643	      5.87069304	     -3.17798723	      2.43903418	     23.06954715	    -11.53685223	    -11.19290625	      1.86111998	      2.23712057	     -6.19294276	     -7.93289921	    -11.10691286	      9.80172665	      9.61761920
      1.13850000	     -0.31618909	     -8.90534192	     -6.55504439	     -0.14098688	      0.99246008	      0.31229659	    -15.34279240	      8.62371365	     -3.83751883	     -7.81716033	      5.88874315	     -3.00993159	      2.59326097	     22.84925415	    -11.49799429	    -11.26038626	      1.37799484	      2.05951246	     -6.48230476	     -7.78693228	    -11.24507993	      9.50597448	      9.85715168
      1.14266667	     -0.12670397	     -8.75535364	     -6.81236954	     -0.13501664	      0.99249190	      0.31258828	    -15.63034218	      8.27940554	     -3.66507352	     -8.32733016	      5.85405965	     -2.85756903	      2.82625161	     22.56610402	    -11.43134499	    -11.37415334	      0.87418717	      1.80522359	     -6.82470377	     -7.57195076	    -11.42111720	      9.16354325	     10.17851782
      1.14683333	      0.06523837	     -8.59909090	     -7.06723263	     -0.12906464	      0.99256484	      0.31282298	    -15.88608420	      7.92049672	     -3.50977784	     -8.89081889	      5.77500791	     -2.70990597	      3.16688351	     22.27238740	    -11.34813364	    -11.45756828	      0.36475668	      1.55310917	     -7.20828396	     -7.26701873	    -11.60822626	      8.82929099	     10.47946694
      1.15100000	      0.14440526	     -8.48876277	     -7.30201857	     -0.12317302	      0.99245645	      0.31301510	    -15.98388220	      7.63049592	     -3.37173751	     -9.53769956	      5.76999978	     -2.52721631	      3.27251081	     22.14694931	    -11.31656950	    -11.52337536	     -0.22411722	      1.22225714	     -7.55627580	     -7.18593862	    -11.66427202	      8.57210114	     10.50639404
      1.15516667	      0.27099674	     -8.30828205	     -7.54913134	     -0.11716271	      0.99251887	      0.31317933	    -16.11740143	      7.24838444	     -3.25172842	    -10.18550169	      5.66588904	     -2.34525372	      3.42173209	     21.90988895	    -11.19626804	    -11.59037770	     -0.72019940	      0.74668118	     -8.06543375	     -7.07525434	    -11.76061731	      8.22532228	     10.73386172
      1.15933333	      0.44926494	     -8.14002643	     -7.76189357	     -0.11117662	      0.99268352	      0.31325500	    -16.28495268	      6.87364287	     -3.17634580	    -10.86035089	      5.52940482	     -2.17005144	      3.59779381	     21.62478427	    -11.06706073	    -11.65658592	     -1.21770331	      0.22644917	     -8.57092942	     -6.94973343	    -11.91442351	      7.88831673	     10.95621217
      1.16350000	      0.76059756	     -7.96335135	     -7.89111736	     -0.10515340	      0.99308201	      0.31315161	    -16.59706662	      6.48072422	     -3.19768898	    -11.49942148	      5.30091298	     -2.00328024	      4.14164886	     21.19699893	    -10.87593566	    -11.67499773	     -1.68652434	     -0.32927843	     -9.10706999	     -6.55836044	    -12.21183756	      7.51531241	     11.30435341
      1.16766667	      0.85456065	     -7.77046670	     -8.09019862	     -0.09912130	      0.99319455	      0.31315622	    -16.60720411	      6.09194319	     -3.16035634	    -12.29159307	      5.14633020	     -1.88180852	      4.46099587	     21.00640976	    -10.71470824	    -11.75538863	     -2.18784919	     -0.86890338	     -9.62700579	     -6.34720995	    -12.24598217	      7.17437696	     11.36049446
      1.17183333	      1.09581006	     -7.60776392	     -8.16724389	     -0.09311982	      0.99355320	      0.31281710	    -16.77937445	      5.72134385	     -3.26334747	    -13.03584802	      4.83534272	     -1.66368056	      5.17815214	     20.66141399	    -10.50670533	    -11.69201445	     -2.61988683	     -1.59860108	    -10.23290067	     -5.88834150	    -12.46608471	      6.88156163	     11.57637337
      1.17600000	      1.11529898	     -7.41312786	     -8.32670826	     -0.08700751	      0.99364268	      0.31276177	    -16.67151211	      5.35395262	     -3.26100771	    -13.87548823	      4.49229658	     -1.58454705	      5.33734874	     20.56760915	    -10.34499048	    -11.81590552	     -3.13526457	     -2.18394232	    -10.55045941	     -5.80027028	    -12.39717422	      6.55537019	     11.48245738
      1.18016667	      1.27621663	     -7.22506000	     -8.32747119	     -0.08094603	      0.99392226	      0.31224039	    -16.70307847	      4.98413233	     -3.46982908	    -14.69704100	      4.07813315	     -1.52835810	     13.20497986	     20.34100777	    -10.08484125	    -11.68756614	     -3.58688338	     -2.92956140	    -11.28526578	     -1.28500242	    -12.49822429	      6.25090778	     11.49290849
      1.18433333	      1.37065798	     -7.01574644	     -8.42600242	     -0.07489234	      0.99419546	      0.31196488	    -16.60801175	      4.58949720	     -3.54828973	    -15.63525684	      3.72191345	     -1.41592995	     13.23554604	     20.16431670	     -9.86237917	    -11.74033233	     -4.05860868	     -3.55399319	    -11.74796897	     -1.26701021	    -12.52434629	      5.91287520	     11.56245219
      1.18850000	      1.46179829	     -6.80752865	     -8.46821574	     -0.06883144	      0.99448839	      0.31156956	    -16.48890060	      4.20914101	     -3.67599858	    -16.59641934	      3.28008316	     -1.33869574	     13.29989710	     20.00159528	     -9.61818627	    -11.71681030	     -4.52013628	     -4.19109122	    -12.23082896	     -1.24523585	    -12.54265051	      5.57505511	     11.57226985
      1.19266667	      1.57946133	     -6.60093417	     -8.42349800	     -0.06276862	      0.99483209	      0.31091863	    -16.37697574	      3.83272202	     -3.91734814	    -17.58086775	      2.77293379	     -1.21098770	     13.46975391	     19.82938829	     -9.33064750	    -11.60005144	     -4.97353728	     -4.84239002	    -12.76783817	     -1.19687844	    -12.58985435	      5.28434021	     11.54387133
      1.19683333	      1.65038923	     -6.36108815	     -8.33547749	     -0.05665059	      0.99512105	      0.31020073	    -16.18675245	      3.43976361	     -4.21190239	    -18.61338511	      2.23637211	     -1.15838129	     13.85574174	     19.72174971	     -9.00087551	    -11.44672850	     -5.44397050	     -5.41106160	    -13.25984001	     -1.10908175	    -12.56395792	      4.95719160	     11.41844952
      1.20100000	      1.70400541	     -6.13392400	     -8.35217402	     -0.05063171	      0.99546558	      0.30974113	    -15.91620808	      3.04926982	     -4.34936636	    -19.74951624	      1.67128786	     -1.17679302	     14.02673883	     19.61137065	     -8.74149258	    -11.47000028	     -5.92627509	     -5.91947077	    -13.61821873	     -1.08426428	    -12.54141075	      4.62739427	     11.32369421
      1.20516667	      1.74814153	     -5.88715376	     -8.31129476	     -0.04451746	      0.99582883	      0.30917952	    -15.62651580	      2.64946230	     -4.55790480	    -20.88382811	      0.96981551	     -1.22309289	     14.12143837	     19.52054463	     -8.44736608	    -11.47256221	     -6.42275873	     -6.31018595	    -13.82939520	     -1.07443250	    -12.48509463	      4.29754403	     11.25210033
      1.20933333	      1.74927324	     -5.64382096	     -8.12255106	     -0.03850324	      0.99605521	      0.30815462	    -15.25130126	      2.26776675	     -4.94319005	    -22.09621493	      0.34485851	     -1.14836657	     14.70369562	     19.51614559	     -8.07208562	    -11.13308233	     -6.90625629	     -6.76905810	    -14.47893391	     -1.02090122	    -12.39316299	      4.00333211	     11.06016245
      1.21350000	      1.77908298	     -5.38256295	     -8.08774469	     -0.03249414	      0.99645034	      0.30764973	    -14.85939086	      1.85959967	     -5.09966493	    -23.37063767	     -0.36337504	     -1.30791952	     14.90545631	     19.43049743	     -7.77431967	    -11.15272856	     -7.38118038	     -7.14557815	    -14.64138397	     -1.01270651	    -12.33461193	      3.63167277	     10.88927221
      1.21766667	      1.78495741	     -5.10249696	     -8.00610867	     -0.02646675	      0.99680871	      0.30698772	    -14.41289158	      1.43151226	     -5.32550922	    -24.68780386	     -1.11773969	     -1.43297334	     15.11595482	     19.37529015	     -7.43217467	    -11.08460882	     -7.85479950	     -7.42618733	    -14.86606969	     -1.00899813	    -12.23857046	      3.27148218	     10.76486202
      1.22183333	      1.66415807	     -4.84357756	     -7.81761214	     -0.02052885	      0.99690224	      0.30599056	    -13.79177138	      1.04992416	     -5.65459217	    -26.08539139	     -1.83873019	     -1.50754277	     15.79862017	     19.51691547	     -7.07158320	    -10.81980129	     -8.40342187	     -7.60538241	    -15.29315823	     -1.01381423	    -12.01425260	      3.00087530	     10.51727045
      1.22600000	      1.66188208	     -4.55031188	     -7.62755119	     -0.01450067	      0.99723356	      0.30509289	    -13.29627159	      0.61395114	     -5.99679818	    -27.45733826	     -2.67230258	     -1.71708480	     21.06343220	     19.49646482	     -6.67903807	    -10.70113100	     -8.90197341	     -7.77133891	    -15.43212152	     -1.27238145	    -11.90898686	      2.66109356	     10.15373891
      1.23016667	      1.67734558	     -4.24781394	     -7.54324522	     -0.00859235	      0.99765124	      0.30445694	    -12.75749478	      0.15965963	     -6.16831595	    -28.91804402	     -3.49742462	     -1.96824075	     21.07356277	     19.40614139	     -6.31745273	    -10.67583415	     -9.34112288	     -7.90215031	    -15.53339783	     -1.28329110	    -11.84026155	      2.26222085	     10.11298081
      1.23433333	      1.60925852	     -3.93462847	     -7.43629137	     -0.00270803	      0.99791914	      0.30375354	    -12.09212811	     -0.29410261	     -6.35107179	    -30.44435894	     -4.28655121	     -2.21316990	     21.08421866	     19.41948909	     -5.94410121	    -10.62656665	     -9.80162954	     -7.97395012	    -15.64641173	     -1.30248603	    -11.67481870	      1.88263686	      9.95126154
